<svg xmlns="http://www.w3.org/2000/svg" width="32" height="32" fill="none"><g clip-path="url(#clip0_1_8)"><circle cx="16" cy="16" r="16" fill="#0f0f0f" class="a"/><path fill="#f0f0f0" d="m4.319 22.09-.09-.936 2.088-.414-.792.774c.024-.132.054-.33.09-.594l.108-.81c.036-.276.054-.48.054-.612v-7.686c0-.132-.018-.324-.054-.576a8.96 8.96 0 0 0-.108-.792 22.344 22.344 0 0 0-.09-.612l.792.72-2.07-.324.09-1.008c.228.012.48.024.756.036l.774.036c.252.012.438.018.558.018l1.296.522c-.012.12-.036.324-.072.612-.024.276-.054.588-.09.936-.024.336-.036.66-.036.972v6.606c0 .312.012.636.036.972.024.324.054.63.09.918.048.276.084.498.108.666l-.792-.702 2.268.18L9.107 22h-2.34c-.144 0-.36.006-.648.018l-.9.036-.9.036Zm7.596-.09c-.108-.24-.234-.504-.378-.792a26.032 26.032 0 0 0-.378-.792c-.108-.24-.186-.408-.234-.504L8.747 15.79l1.872-.072c.324.636.642 1.242.954 1.818.324.576.6 1.056.828 1.44.24.384.378.606.414.666.084.132.21.324.378.576.18.252.342.474.486.666l1.242.108L14.795 22h-2.88Zm-2.862-5.382c-.48 0-.96-.006-1.44-.018l-1.44-.072v-1.08l1.26.144c.42.048.84.072 1.26.072.912 0 1.638-.228 2.178-.684.54-.468.81-1.164.81-2.088 0-.888-.264-1.56-.792-2.016-.528-.468-1.248-.702-2.16-.702-.204 0-.438.012-.702.036a9.652 9.652 0 0 0-.81.072c-.276.024-.54.048-.792.072V9.31c.492 0 1.002-.012 1.53-.036a22.509 22.509 0 0 1 1.53-.054c.828 0 1.536.138 2.124.414.6.276 1.062.684 1.386 1.224.324.54.486 1.212.486 2.016 0 .78-.204 1.452-.612 2.016-.396.564-.936.996-1.62 1.296a5.516 5.516 0 0 1-2.196.432Zm7.231 5.472-.072-.918 1.782-.468-.9.594.36-.684c.12-.228.234-.468.342-.72.12-.264.222-.522.306-.774l3.222-9.81 1.152-.18 3.708 10.224c.096.324.222.642.378.954.168.312.312.612.432.9l-.882-.522 1.836.306-.09 1.008h-1.782a19.9 19.9 0 0 0-.684.018l-1.008.036c-.36.012-.69.024-.99.036l-.072-.918 1.998-.558-.612.774c-.072-.48-.144-.906-.216-1.278a6.406 6.406 0 0 0-.324-1.134l-2.61-7.578h.432l-2.646 8.334a4.228 4.228 0 0 0-.18.792c-.024.264-.042.528-.054.792l-.666-.594 1.962.27-.09 1.008h-1.584c-.144 0-.36.006-.648.018l-.9.036-.9.036Zm3.132-4.014V17.05h5.004v1.026h-5.004Z" class="b"/></g></svg>