<svg width="260" height="260" viewBox="0 0 260 260" fill="none" xmlns="http://www.w3.org/2000/svg">
<g clip-path="url(#clip0_1_7)">
<circle cx="130" cy="130" r="108" fill="black"/>
<path d="M46.933 175.64L46.293 168.984L61.141 166.04L55.509 171.544C55.6797 170.605 55.893 169.197 56.149 167.32C56.405 165.443 56.661 163.523 56.917 161.56C57.173 159.597 57.301 158.147 57.301 157.208V102.552C57.301 101.613 57.173 100.248 56.917 98.456C56.7463 96.5787 56.4903 94.7013 56.149 92.824C55.893 90.9467 55.6797 89.496 55.509 88.472L61.141 93.592L46.421 91.288L47.061 84.12C48.6823 84.2053 50.4743 84.2907 52.437 84.376C54.3997 84.4613 56.2343 84.5467 57.941 84.632C59.733 84.7173 61.0557 84.76 61.909 84.76L71.125 88.472C71.0397 89.3253 70.869 90.776 70.613 92.824C70.4423 94.7867 70.229 97.0053 69.973 99.48C69.8023 101.869 69.717 104.173 69.717 106.392V153.368C69.717 155.587 69.8023 157.891 69.973 160.28C70.1437 162.584 70.357 164.76 70.613 166.808C70.9543 168.771 71.2103 170.349 71.381 171.544L65.749 166.552L81.877 167.832L80.981 175H64.341C63.317 175 61.781 175.043 59.733 175.128C57.7703 175.213 55.637 175.299 53.333 175.384C51.029 175.469 48.8957 175.555 46.933 175.64ZM100.949 175C100.181 173.293 99.285 171.416 98.261 169.368C97.3223 167.32 96.4263 165.443 95.573 163.736C94.805 162.029 94.2503 160.835 93.909 160.152L78.421 130.84L91.733 130.328C94.037 134.851 96.2983 139.16 98.517 143.256C100.821 147.352 102.784 150.765 104.405 153.496C106.112 156.227 107.093 157.805 107.349 158.232C107.946 159.171 108.842 160.536 110.037 162.328C111.317 164.12 112.469 165.699 113.493 167.064L122.325 167.832L121.429 175H100.949ZM80.597 136.728C77.1837 136.728 73.7703 136.685 70.357 136.6C66.9437 136.429 63.5303 136.259 60.117 136.088V128.408C63.1037 128.749 66.0903 129.091 69.077 129.432C72.0637 129.773 75.0503 129.944 78.037 129.944C84.5223 129.944 89.685 128.323 93.525 125.08C97.365 121.752 99.285 116.803 99.285 110.232C99.285 103.917 97.4077 99.1387 93.653 95.896C89.8983 92.568 84.7783 90.904 78.293 90.904C76.8423 90.904 75.1783 90.9893 73.301 91.16C71.4237 91.2453 69.5037 91.416 67.541 91.672C65.5783 91.8427 63.701 92.0133 61.909 92.184V84.76C65.4077 84.76 69.0343 84.6747 72.789 84.504C76.5437 84.248 80.1703 84.12 83.669 84.12C89.557 84.12 94.5917 85.1013 98.773 87.064C103.04 89.0267 106.325 91.928 108.629 95.768C110.933 99.608 112.085 104.387 112.085 110.104C112.085 115.651 110.634 120.429 107.733 124.44C104.917 128.451 101.077 131.523 96.213 133.656C91.4343 135.704 86.229 136.728 80.597 136.728ZM132.022 175.64L131.51 169.112L144.182 165.784L137.782 170.008C138.635 168.387 139.489 166.765 140.342 165.144C141.195 163.523 142.006 161.816 142.774 160.024C143.627 158.147 144.353 156.312 144.95 154.52L167.862 84.76L176.054 83.48L202.422 156.184C203.105 158.488 204.001 160.749 205.11 162.968C206.305 165.187 207.329 167.32 208.182 169.368L201.91 165.656L214.966 167.832L214.326 175H201.654C200.63 175 199.009 175.043 196.79 175.128C194.571 175.213 192.182 175.299 189.622 175.384C187.062 175.469 184.715 175.555 182.582 175.64L182.07 169.112L196.278 165.144L191.926 170.648C191.414 167.235 190.902 164.205 190.39 161.56C189.878 158.829 189.11 156.141 188.086 153.496L169.526 99.608H172.598L153.782 158.872C153.185 160.664 152.758 162.541 152.502 164.504C152.331 166.381 152.203 168.259 152.118 170.136L147.382 165.912L161.334 167.832L160.694 175H149.43C148.406 175 146.87 175.043 144.822 175.128C142.859 175.213 140.726 175.299 138.422 175.384C136.118 175.469 133.985 175.555 132.022 175.64ZM154.294 147.096V139.8H189.878V147.096H154.294Z" fill="white"/>
</g>
<defs>
<clipPath id="clip0_1_7">
<rect width="260" height="260" fill="white"/>
</clipPath>
</defs>
</svg>
