<svg width="48px" height="48px" viewBox="0 0 48 48" xmlns="http://www.w3.org/2000/svg">
  <title>Ryan Arnaudin Design</title>
<path fill-rule="evenodd" clip-rule="evenodd" d="M24 43.9385C35.0117 43.9385 43.9384 35.0117 43.9384 24C43.9384 12.9883 35.0117 4.06154 24 4.06154C12.9883 4.06154 4.06152 12.9883 4.06152 24C4.06152 35.0117 12.9883 43.9385 24 43.9385ZM24.2697 30.922L24.3797 32.11C24.7024 32.0953 25.0617 32.0807 25.4577 32.066C25.8538 32.0513 26.2278 32.0367 26.5798 32.022C26.9317 32.0073 27.1957 32 27.3717 32H29.3957L29.5057 30.702L27.9853 30.5153C27.9928 30.4142 28.0009 30.3151 28.0098 30.218C28.0538 29.8953 28.1197 29.58 28.2077 29.272L28.8139 27.358H33.5425L33.9058 28.458C34.0671 28.898 34.1918 29.338 34.2798 29.778C34.324 29.9994 34.3683 30.2467 34.4126 30.52L32.8717 30.922L32.9378 32.11C33.3338 32.0953 33.7664 32.0807 34.2358 32.066C34.7198 32.0513 35.1671 32.0367 35.5778 32.022C35.9884 32.0073 36.2818 32 36.4578 32H38.5698L38.6798 30.702L37.296 30.4714C37.2175 30.3179 37.136 30.1601 37.0518 29.998C36.8758 29.6167 36.7218 29.228 36.5898 28.832L32.1017 16.27L30.4738 16.49L26.5137 28.48C26.3964 28.788 26.2717 29.096 26.1397 29.404C26.0077 29.712 25.8611 30.0127 25.6997 30.306L25.5294 30.6163L24.2697 30.922ZM33.0922 25.994L31.1289 20.0482L29.2459 25.994H33.0922ZM9.53714 30.878L9.64714 32.11C9.99914 32.0953 10.3731 32.0807 10.7691 32.066C11.1651 32.0513 11.5391 32.0367 11.8911 32.022C12.2431 32.0073 12.5145 32 12.7051 32H15.5871L15.7191 30.702L13.9331 30.558C13.8904 30.2009 13.8478 29.8162 13.8051 29.404C13.7758 28.9787 13.7611 28.568 13.7611 28.172V25.4682C14.3328 25.4961 14.8974 25.51 15.4551 25.51C15.5225 25.51 15.5896 25.5092 15.6562 25.5075L17.7211 29.448C17.7798 29.5653 17.8751 29.7707 18.0071 30.064C18.1538 30.3573 18.3078 30.68 18.4691 31.032C18.6451 31.384 18.7918 31.7067 18.9091 32H22.5611L22.7151 30.702L21.2851 30.57C21.1238 30.3647 20.9405 30.1153 20.7351 29.822C20.5298 29.514 20.3758 29.2793 20.2731 29.118C20.2291 29.0447 20.0605 28.7733 19.7671 28.304C19.4885 27.8347 19.1511 27.248 18.7551 26.544C18.4866 26.0667 18.2215 25.5725 17.9598 25.0615C18.0423 25.0294 18.1241 24.9955 18.2051 24.96C19.0558 24.5933 19.7305 24.058 20.2291 23.354C20.7425 22.65 20.9991 21.814 20.9991 20.846C20.9991 19.878 20.7938 19.064 20.3831 18.404C19.9871 17.744 19.4225 17.2453 18.6891 16.908C17.9558 16.556 17.0831 16.38 16.0711 16.38C15.4698 16.38 14.8318 16.402 14.1571 16.446C13.4825 16.4753 12.8445 16.49 12.2431 16.49C12.0965 16.49 11.8691 16.4827 11.5611 16.468C11.2531 16.4533 10.9305 16.4387 10.5931 16.424C10.2558 16.4093 9.95514 16.3947 9.69114 16.38L9.58114 17.678L11.2081 17.9561L11.2091 17.964C11.2678 18.2867 11.3118 18.602 11.3411 18.91C11.3851 19.218 11.4071 19.4673 11.4071 19.658V28.832C11.4071 29.008 11.3851 29.272 11.3411 29.624C11.3006 29.9348 11.2538 30.2456 11.2008 30.5564L9.53714 30.878ZM13.9478 17.7166C13.938 17.8004 13.9271 17.8902 13.9151 17.986C13.8858 18.338 13.8491 18.7193 13.8051 19.13C13.7758 19.5407 13.7611 19.9367 13.7611 20.318V24.1667C14.1842 24.1969 14.6022 24.212 15.0151 24.212C16.1151 24.212 16.9731 23.9407 17.5891 23.398C18.2198 22.8407 18.5351 22.0047 18.5351 20.89C18.5351 19.8487 18.2345 19.0567 17.6331 18.514C17.0465 17.9567 16.2031 17.678 15.1031 17.678C14.8831 17.678 14.5971 17.6853 14.2451 17.7C14.1467 17.7043 14.0475 17.7098 13.9478 17.7166Z" stroke="none" fill="#000000"/>
</svg>
